<?xml version="1.0" standalone="no"?>
<!DOCTYPE svg PUBLIC "-//W3C//DTD SVG 20010904//EN"
 "http://www.w3.org/TR/2001/REC-SVG-20010904/DTD/svg10.dtd">
<svg version="1.0" xmlns="http://www.w3.org/2000/svg"
 width="1599.000000pt" height="1599.000000pt" viewBox="0 0 1599.000000 1599.000000"
 preserveAspectRatio="xMidYMid meet">

<g transform="translate(0.000000,1599.000000) scale(0.100000,-0.100000)"
fill="#000000" stroke="none">
<path d="M5875 12208 c4 -13 22 -70 40 -128 18 -58 47 -150 63 -205 17 -55
149 -478 293 -940 143 -462 271 -874 284 -915 13 -41 44 -142 70 -225 25 -82
76 -244 112 -360 35 -115 84 -273 108 -350 52 -165 359 -1153 556 -1790 77
-247 162 -520 189 -605 27 -85 54 -174 60 -196 5 -23 16 -47 24 -53 9 -8 106
-11 332 -9 l318 3 49 155 c26 85 120 387 208 670 87 283 170 549 183 590 13
41 38 120 55 175 17 55 138 447 270 870 131 424 295 952 365 1175 69 223 200
646 291 940 314 1010 375 1209 375 1214 0 4 -92 6 -204 6 l-204 0 -26 -77
c-24 -76 -370 -1187 -406 -1308 -43 -141 -54 -177 -456 -1469 -118 -380 -228
-736 -245 -791 -17 -55 -41 -134 -54 -175 -14 -41 -59 -185 -100 -320 -42
-135 -105 -337 -140 -450 -35 -113 -112 -360 -171 -550 -58 -190 -110 -349
-114 -354 -5 -5 -24 43 -44 105 -19 63 -170 548 -335 1079 -165 532 -339 1092
-386 1245 -47 154 -108 350 -135 435 -27 85 -102 324 -165 530 -145 467 -169
544 -367 1180 -88 283 -166 535 -174 560 -7 25 -35 115 -62 200 l-49 155 -207
3 -207 2 6 -22z"/>
<path d="M4461 12118 c-21 -46 -98 -204 -171 -353 -73 -148 -167 -342 -210
-430 -43 -88 -133 -272 -200 -410 -119 -243 -202 -414 -408 -835 -54 -113
-191 -392 -302 -620 -111 -228 -245 -502 -296 -607 -151 -311 -274 -563 -389
-798 -59 -121 -149 -305 -200 -410 -51 -104 -145 -298 -210 -430 -64 -132
-148 -304 -186 -383 l-69 -143 0 -200 0 -199 1915 0 1915 0 0 575 0 575 -192
-2 -193 -3 -3 -377 -2 -378 -1500 0 c-993 0 -1500 3 -1500 10 0 11 56 128 245
515 282 576 332 679 405 830 43 88 133 273 200 410 122 249 233 478 400 820
48 99 136 279 195 400 233 477 321 657 400 820 45 94 140 287 210 430 70 143
156 319 190 390 35 72 126 260 204 419 77 159 141 290 141 292 0 5 -337 174
-345 174 -3 0 -23 -37 -44 -82z"/>
<path d="M10346 12192 c-3 -5 -4 -263 -3 -573 l2 -564 195 0 195 0 3 378 2
377 1490 0 c820 0 1490 -2 1490 -4 0 -3 -79 -167 -335 -691 -54 -110 -140
-288 -192 -395 -224 -459 -276 -566 -377 -772 -280 -575 -324 -664 -396 -813
-43 -88 -137 -281 -210 -430 -73 -148 -165 -337 -205 -420 -40 -82 -123 -253
-185 -380 -62 -126 -155 -318 -207 -425 -53 -107 -143 -292 -200 -410 -206
-420 -263 -540 -262 -548 0 -5 300 -156 338 -170 4 -1 55 96 114 215 58 120
170 349 248 508 133 272 175 359 409 840 51 105 132 271 180 370 48 99 149
306 225 460 75 154 165 339 200 410 66 137 137 282 465 955 111 228 248 507
302 620 138 281 264 540 406 833 67 136 126 247 132 247 6 0 10 67 10 195 l0
195 -1914 0 c-1053 0 -1917 -4 -1920 -8z"/>
<path d="M5260 6030 l0 -190 195 0 195 0 0 190 0 190 -195 0 -195 0 0 -190z"/>
<path d="M4591 5065 c-110 -41 -193 -127 -233 -245 -22 -61 -23 -81 -23 -340
0 -262 1 -278 23 -339 60 -165 182 -256 362 -268 218 -16 397 112 439 315 14
67 14 531 0 591 -34 148 -132 252 -278 297 -74 22 -214 17 -290 -11z m238
-145 c63 -18 109 -59 142 -125 l30 -62 -3 -264 c-3 -249 -4 -266 -25 -305 -45
-84 -121 -128 -223 -128 -75 0 -121 18 -169 64 -71 69 -75 85 -79 347 -2 151
0 251 8 288 29 141 176 226 319 185z"/>
<path d="M3410 4480 l0 -600 80 0 80 0 0 255 0 255 250 0 250 0 0 80 0 80
-250 0 -250 0 0 185 0 185 295 0 295 0 0 80 0 80 -375 0 -375 0 0 -600z"/>
<path d="M5430 4663 c0 -338 3 -430 15 -482 48 -202 189 -311 405 -311 195 0
334 90 395 255 17 45 19 91 23 503 l3 452 -80 0 -80 0 -3 -427 c-3 -423 -3
-429 -26 -479 -44 -98 -110 -137 -233 -137 -89 -1 -155 26 -195 79 -52 68 -53
77 -54 537 l0 427 -85 0 -85 0 0 -417z"/>
<path d="M6555 5068 c-3 -7 -4 -276 -3 -598 l3 -585 83 -3 82 -3 0 256 0 255
128 0 127 0 128 -255 127 -255 101 0 101 0 -20 33 c-10 17 -46 84 -79 147 -33
63 -86 163 -117 222 -31 59 -56 111 -56 117 0 6 15 17 34 26 180 86 241 346
121 520 -39 57 -80 87 -154 116 -46 17 -78 19 -326 19 -211 0 -277 -3 -280
-12z m560 -162 c53 -31 79 -80 83 -155 3 -54 -1 -74 -20 -110 -42 -82 -53 -86
-269 -89 l-189 -3 0 184 c0 101 3 187 8 191 4 5 86 6 182 4 147 -3 180 -6 205
-22z"/>
<path d="M8120 4480 l0 -600 85 0 85 0 0 255 0 255 245 0 245 0 0 80 0 80
-245 0 -245 0 0 185 0 185 291 2 292 3 1 78 1 77 -377 0 -378 0 0 -600z"/>
<path d="M9060 4480 l0 -600 85 0 85 0 0 600 0 600 -85 0 -85 0 0 -600z"/>
<path d="M9410 5072 c0 -8 51 -165 246 -762 24 -74 65 -202 91 -283 l48 -148
79 3 80 3 62 190 c231 705 324 992 324 998 0 4 -40 7 -88 7 l-88 0 -63 -202
c-34 -112 -96 -315 -138 -453 -41 -137 -79 -256 -83 -264 -5 -9 -23 35 -49
120 -23 74 -54 175 -70 224 -15 50 -61 199 -102 332 l-74 243 -87 0 c-49 0
-88 -4 -88 -8z"/>
<path d="M10530 4480 l0 -600 383 2 382 3 0 75 0 75 -302 3 -303 2 0 180 0
180 258 2 257 3 0 75 0 75 -257 3 -258 2 0 180 0 180 303 2 302 3 0 75 0 75
-382 3 -383 2 0 -600z"/>
<path d="M11936 5072 c-3 -5 -4 -78 -3 -163 l2 -154 83 -3 82 -3 0 86 0 85
155 0 c119 0 153 -3 150 -12 -6 -18 -139 -466 -225 -757 -39 -134 -74 -250
-77 -257 -4 -11 13 -14 83 -14 l89 0 54 183 c29 100 75 254 101 342 160 536
155 517 155 595 l0 75 -322 3 c-177 1 -324 -2 -327 -6z"/>
</g>
</svg>
